TITLE ""
FILE "1Q_t_0339-0348.mp3" MP3
  TRACK 01 AUDIO
    TITLE "1Q_t_0339-0348_01"
    INDEX 01 00:00:00
  TRACK 02 AUDIO
    TITLE "1Q_t_0339-0348_02"
    INDEX 01 00:01:14
  TRACK 03 AUDIO
    TITLE "1Q_t_0339-0348_03"
    INDEX 01 00:01:31
  TRACK 04 AUDIO
    TITLE "1Q_t_0339-0348_04"
    INDEX 01 00:02:44
  TRACK 05 AUDIO
    TITLE "1Q_t_0339-0348_05"
    INDEX 01 00:02:58
  TRACK 06 AUDIO
    TITLE "1Q_t_0339-0348_06"
    INDEX 01 00:09:43
  TRACK 07 AUDIO
    TITLE "1Q_t_0339-0348_07"
    INDEX 01 00:10:26
  TRACK 08 AUDIO
    TITLE "1Q_t_0339-0348_08"
    INDEX 01 00:11:30
  TRACK 09 AUDIO
    TITLE "1Q_t_0339-0348_09"
    INDEX 01 00:11:47
  TRACK 10 AUDIO
    TITLE "1Q_t_0339-0348_10"
    INDEX 01 00:13:66
  TRACK 11 AUDIO
    TITLE "1Q_t_0339-0348_11"
    INDEX 01 00:14:07
  TRACK 12 AUDIO
    TITLE "1Q_t_0339-0348_12"
    INDEX 01 00:20:38
  TRACK 13 AUDIO
    TITLE "1Q_t_0339-0348_13"
    INDEX 01 00:21:16
  TRACK 14 AUDIO
    TITLE "1Q_t_0339-0348_14"
    INDEX 01 00:22:41
  TRACK 15 AUDIO
    TITLE "1Q_t_0339-0348_15"
    INDEX 01 00:22:57
  TRACK 16 AUDIO
    TITLE "1Q_t_0339-0348_16"
    INDEX 01 00:25:57
  TRACK 17 AUDIO
    TITLE "1Q_t_0339-0348_17"
    INDEX 01 00:26:02
  TRACK 18 AUDIO
    TITLE "1Q_t_0339-0348_18"
    INDEX 01 00:33:25
  TRACK 19 AUDIO
    TITLE "1Q_t_0339-0348_19"
    INDEX 01 00:34:05
  TRACK 20 AUDIO
    TITLE "1Q_t_0339-0348_20"
    INDEX 01 00:35:44
  TRACK 21 AUDIO
    TITLE "1Q_t_0339-0348_21"
    INDEX 01 00:35:64
  TRACK 22 AUDIO
    TITLE "1Q_t_0339-0348_22"
    INDEX 01 00:37:57
  TRACK 23 AUDIO
    TITLE "1Q_t_0339-0348_23"
    INDEX 01 00:37:72
  TRACK 24 AUDIO
    TITLE "1Q_t_0339-0348_24"
    INDEX 01 00:44:08
  TRACK 25 AUDIO
    TITLE "1Q_t_0339-0348_25"
    INDEX 01 00:44:60
  TRACK 26 AUDIO
    TITLE "1Q_t_0339-0348_26"
    INDEX 01 00:46:03
  TRACK 27 AUDIO
    TITLE "1Q_t_0339-0348_27"
    INDEX 01 00:46:20
  TRACK 28 AUDIO
    TITLE "1Q_t_0339-0348_28"
    INDEX 01 00:48:23
  TRACK 29 AUDIO
    TITLE "1Q_t_0339-0348_29"
    INDEX 01 00:48:37
  TRACK 30 AUDIO
    TITLE "1Q_t_0339-0348_30"
    INDEX 01 00:55:09
  TRACK 31 AUDIO
    TITLE "1Q_t_0339-0348_31"
    INDEX 01 00:55:62
  TRACK 32 AUDIO
    TITLE "1Q_t_0339-0348_32"
    INDEX 01 00:56:62
  TRACK 33 AUDIO
    TITLE "1Q_t_0339-0348_33"
    INDEX 01 00:57:04
  TRACK 34 AUDIO
    TITLE "1Q_t_0339-0348_34"
    INDEX 01 00:59:01
  TRACK 35 AUDIO
    TITLE "1Q_t_0339-0348_35"
    INDEX 01 00:59:17
  TRACK 36 AUDIO
    TITLE "1Q_t_0339-0348_36"
    INDEX 01 01:06:60
  TRACK 37 AUDIO
    TITLE "1Q_t_0339-0348_37"
    INDEX 01 01:07:40
  TRACK 38 AUDIO
    TITLE "1Q_t_0339-0348_38"
    INDEX 01 01:08:41
  TRACK 39 AUDIO
    TITLE "1Q_t_0339-0348_39"
    INDEX 01 01:08:57
  TRACK 40 AUDIO
    TITLE "1Q_t_0339-0348_40"
    INDEX 01 01:09:49
  TRACK 41 AUDIO
    TITLE "1Q_t_0339-0348_41"
    INDEX 01 01:09:62
  TRACK 42 AUDIO
    TITLE "1Q_t_0339-0348_42"
    INDEX 01 01:15:10
  TRACK 43 AUDIO
    TITLE "1Q_t_0339-0348_43"
    INDEX 01 01:15:63
  TRACK 44 AUDIO
    TITLE "1Q_t_0339-0348_44"
    INDEX 01 01:17:23
  TRACK 45 AUDIO
    TITLE "1Q_t_0339-0348_45"
    INDEX 01 01:17:38
  TRACK 46 AUDIO
    TITLE "1Q_t_0339-0348_46"
    INDEX 01 01:19:27
  TRACK 47 AUDIO
    TITLE "1Q_t_0339-0348_47"
    INDEX 01 01:19:39
  TRACK 48 AUDIO
    TITLE "1Q_t_0339-0348_48"
    INDEX 01 01:26:04
  TRACK 49 AUDIO
    TITLE "1Q_t_0339-0348_49"
    INDEX 01 01:26:55
  TRACK 50 AUDIO
    TITLE "1Q_t_0339-0348_50"
    INDEX 01 01:27:68
  TRACK 51 AUDIO
    TITLE "1Q_t_0339-0348_51"
    INDEX 01 01:28:09
  TRACK 52 AUDIO
    TITLE "1Q_t_0339-0348_52"
    INDEX 01 01:30:08
  TRACK 53 AUDIO
    TITLE "1Q_t_0339-0348_53"
    INDEX 01 01:30:23
  TRACK 54 AUDIO
    TITLE "1Q_t_0339-0348_54"
    INDEX 01 01:36:67
  TRACK 55 AUDIO
    TITLE "1Q_t_0339-0348_55"
    INDEX 01 01:37:43
  TRACK 56 AUDIO
    TITLE "1Q_t_0339-0348_56"
    INDEX 01 01:38:58
  TRACK 57 AUDIO
    TITLE "1Q_t_0339-0348_57"
    INDEX 01 01:38:74
  TRACK 58 AUDIO
    TITLE "1Q_t_0339-0348_58"
    INDEX 01 01:41:43
  TRACK 59 AUDIO
    TITLE "1Q_t_0339-0348_59"
    INDEX 01 01:41:58
  TRACK 60 AUDIO
    TITLE "1Q_t_0339-0348_60"
    INDEX 01 01:47:28
